<svg xmlns="http://www.w3.org/2000/svg" viewBox="0 0 900 420" width="900" height="420" font-family="-apple-system, BlinkMacSystemFont, 'Segoe UI', Helvetica, Arial, sans-serif">
  <rect width="900" height="420" fill="#ffffff"/>
  <text x="450" y="32" text-anchor="middle" font-size="19" font-weight="600" fill="#111827">Why one ulp is enough to change the answer</text>
  <text x="450" y="54" text-anchor="middle" font-size="13" fill="#6b7280">A router does not round. It picks, and near the cut the margin is thinner than the arithmetic.</text>

  <rect x="34" y="76" width="396" height="300" rx="8" fill="#fbfdff" stroke="#d1d5db" stroke-width="1.2"/>
  <text x="52" y="100" font-size="14" font-weight="600" fill="#111827">One row, scored against every expert</text>
  <text x="52" y="118" font-size="11" fill="#6b7280">sorted by score, top 8 are routed to (bar heights illustrative)</text>
  <rect x="60" y="180" width="16" height="150" rx="2" fill="#dbeafe" stroke="#93c5fd" stroke-width="1.1"/>
  <text x="68" y="344" text-anchor="middle" font-size="9" fill="#9ca3af">1</text>
  <rect x="82" y="202" width="16" height="128" rx="2" fill="#dbeafe" stroke="#93c5fd" stroke-width="1.1"/>
  <text x="90" y="344" text-anchor="middle" font-size="9" fill="#9ca3af">2</text>
  <rect x="104" y="218" width="16" height="112" rx="2" fill="#dbeafe" stroke="#93c5fd" stroke-width="1.1"/>
  <text x="112" y="344" text-anchor="middle" font-size="9" fill="#9ca3af">3</text>
  <rect x="126" y="231" width="16" height="99" rx="2" fill="#dbeafe" stroke="#93c5fd" stroke-width="1.1"/>
  <text x="134" y="344" text-anchor="middle" font-size="9" fill="#9ca3af">4</text>
  <rect x="148" y="241" width="16" height="89" rx="2" fill="#dbeafe" stroke="#93c5fd" stroke-width="1.1"/>
  <text x="156" y="344" text-anchor="middle" font-size="9" fill="#9ca3af">5</text>
  <rect x="170" y="249" width="16" height="81" rx="2" fill="#dbeafe" stroke="#93c5fd" stroke-width="1.1"/>
  <text x="178" y="344" text-anchor="middle" font-size="9" fill="#9ca3af">6</text>
  <rect x="192" y="255" width="16" height="75" rx="2" fill="#dbeafe" stroke="#93c5fd" stroke-width="1.1"/>
  <text x="200" y="344" text-anchor="middle" font-size="9" fill="#9ca3af">7</text>
  <rect x="214" y="260" width="16" height="70" rx="2" fill="#fecaca" stroke="#dc2626" stroke-width="1.6"/>
  <text x="222" y="344" text-anchor="middle" font-size="9" fill="#9ca3af">8</text>
  <rect x="236" y="260" width="16" height="70" rx="2" fill="#fecaca" stroke="#dc2626" stroke-width="1.6"/>
  <text x="244" y="344" text-anchor="middle" font-size="9" fill="#9ca3af">9</text>
  <rect x="258" y="268" width="16" height="62" rx="2" fill="#dbeafe" stroke="#93c5fd" stroke-width="1.1"/>
  <text x="266" y="344" text-anchor="middle" font-size="9" fill="#9ca3af">10</text>
  <rect x="280" y="275" width="16" height="55" rx="2" fill="#dbeafe" stroke="#93c5fd" stroke-width="1.1"/>
  <text x="288" y="344" text-anchor="middle" font-size="9" fill="#9ca3af">11</text>
  <rect x="302" y="281" width="16" height="49" rx="2" fill="#dbeafe" stroke="#93c5fd" stroke-width="1.1"/>
  <text x="310" y="344" text-anchor="middle" font-size="9" fill="#9ca3af">12</text>
  <rect x="324" y="287" width="16" height="43" rx="2" fill="#dbeafe" stroke="#93c5fd" stroke-width="1.1"/>
  <text x="332" y="344" text-anchor="middle" font-size="9" fill="#9ca3af">13</text>
  <rect x="346" y="292" width="16" height="38" rx="2" fill="#dbeafe" stroke="#93c5fd" stroke-width="1.1"/>
  <text x="354" y="344" text-anchor="middle" font-size="9" fill="#9ca3af">14</text>
  <rect x="368" y="297" width="16" height="33" rx="2" fill="#dbeafe" stroke="#93c5fd" stroke-width="1.1"/>
  <text x="376" y="344" text-anchor="middle" font-size="9" fill="#9ca3af">15</text>
  <rect x="390" y="302" width="16" height="28" rx="2" fill="#dbeafe" stroke="#93c5fd" stroke-width="1.1"/>
  <text x="398" y="344" text-anchor="middle" font-size="9" fill="#9ca3af">16</text>
  <line x1="233" y1="168" x2="233" y2="338" stroke="#dc2626" stroke-width="1.4" stroke-dasharray="4 3"/>
  <text x="140" y="358" text-anchor="middle" font-size="11" font-weight="600" fill="#374151">routed</text>
  <text x="330" y="358" text-anchor="middle" font-size="11" fill="#9ca3af">dropped</text>
  <text x="52" y="150" font-size="11" fill="#b91c1c">ranks 8 and 9 are the pair that decides</text>

  <rect x="470" y="76" width="396" height="300" rx="8" fill="#fffbfb" stroke="#fca5a5" stroke-width="1.2"/>
  <text x="488" y="100" font-size="14" font-weight="600" fill="#111827">How often that pair is a coin flip</text>
  <text x="488" y="118" font-size="11" fill="#6b7280">each square is 1% of rows; synthetic router-shaped matrix, Gaussian input</text>
  <rect x="576" y="150" width="16" height="16" rx="2" fill="#dc2626"/>
  <rect x="596" y="150" width="16" height="16" rx="2" fill="#dc2626"/>
  <rect x="616" y="150" width="16" height="16" rx="2" fill="#dc2626"/>
  <rect x="636" y="150" width="16" height="16" rx="2" fill="#dc2626"/>
  <rect x="656" y="150" width="16" height="16" rx="2" fill="#dc2626"/>
  <rect x="676" y="150" width="16" height="16" rx="2" fill="#dc2626"/>
  <rect x="696" y="150" width="16" height="16" rx="2" fill="#dc2626"/>
  <rect x="716" y="150" width="16" height="16" rx="2" fill="#dc2626"/>
  <rect x="736" y="150" width="16" height="16" rx="2" fill="#dc2626"/>
  <rect x="756" y="150" width="16" height="16" rx="2" fill="#dc2626"/>
  <rect x="576" y="170" width="16" height="16" rx="2" fill="#dc2626"/>
  <rect x="596" y="170" width="16" height="16" rx="2" fill="#dc2626"/>
  <rect x="616" y="170" width="16" height="16" rx="2" fill="#dc2626"/>
  <rect x="636" y="170" width="16" height="16" rx="2" fill="#dc2626"/>
  <rect x="656" y="170" width="16" height="16" rx="2" fill="#dc2626"/>
  <rect x="676" y="170" width="16" height="16" rx="2" fill="#dc2626"/>
  <rect x="696" y="170" width="16" height="16" rx="2" fill="#dc2626"/>
  <rect x="716" y="170" width="16" height="16" rx="2" fill="#dc2626"/>
  <rect x="736" y="170" width="16" height="16" rx="2" fill="#dc2626"/>
  <rect x="756" y="170" width="16" height="16" rx="2" fill="#dc2626"/>
  <rect x="576" y="190" width="16" height="16" rx="2" fill="#dc2626"/>
  <rect x="596" y="190" width="16" height="16" rx="2" fill="#dc2626"/>
  <rect x="616" y="190" width="16" height="16" rx="2" fill="#dc2626"/>
  <rect x="636" y="190" width="16" height="16" rx="2" fill="#dc2626"/>
  <rect x="656" y="190" width="16" height="16" rx="2" fill="#e5e7eb"/>
  <rect x="676" y="190" width="16" height="16" rx="2" fill="#e5e7eb"/>
  <rect x="696" y="190" width="16" height="16" rx="2" fill="#e5e7eb"/>
  <rect x="716" y="190" width="16" height="16" rx="2" fill="#e5e7eb"/>
  <rect x="736" y="190" width="16" height="16" rx="2" fill="#e5e7eb"/>
  <rect x="756" y="190" width="16" height="16" rx="2" fill="#e5e7eb"/>
  <rect x="576" y="210" width="16" height="16" rx="2" fill="#e5e7eb"/>
  <rect x="596" y="210" width="16" height="16" rx="2" fill="#e5e7eb"/>
  <rect x="616" y="210" width="16" height="16" rx="2" fill="#e5e7eb"/>
  <rect x="636" y="210" width="16" height="16" rx="2" fill="#e5e7eb"/>
  <rect x="656" y="210" width="16" height="16" rx="2" fill="#e5e7eb"/>
  <rect x="676" y="210" width="16" height="16" rx="2" fill="#e5e7eb"/>
  <rect x="696" y="210" width="16" height="16" rx="2" fill="#e5e7eb"/>
  <rect x="716" y="210" width="16" height="16" rx="2" fill="#e5e7eb"/>
  <rect x="736" y="210" width="16" height="16" rx="2" fill="#e5e7eb"/>
  <rect x="756" y="210" width="16" height="16" rx="2" fill="#e5e7eb"/>
  <rect x="576" y="230" width="16" height="16" rx="2" fill="#e5e7eb"/>
  <rect x="596" y="230" width="16" height="16" rx="2" fill="#e5e7eb"/>
  <rect x="616" y="230" width="16" height="16" rx="2" fill="#e5e7eb"/>
  <rect x="636" y="230" width="16" height="16" rx="2" fill="#e5e7eb"/>
  <rect x="656" y="230" width="16" height="16" rx="2" fill="#e5e7eb"/>
  <rect x="676" y="230" width="16" height="16" rx="2" fill="#e5e7eb"/>
  <rect x="696" y="230" width="16" height="16" rx="2" fill="#e5e7eb"/>
  <rect x="716" y="230" width="16" height="16" rx="2" fill="#e5e7eb"/>
  <rect x="736" y="230" width="16" height="16" rx="2" fill="#e5e7eb"/>
  <rect x="756" y="230" width="16" height="16" rx="2" fill="#e5e7eb"/>
  <rect x="576" y="250" width="16" height="16" rx="2" fill="#e5e7eb"/>
  <rect x="596" y="250" width="16" height="16" rx="2" fill="#e5e7eb"/>
  <rect x="616" y="250" width="16" height="16" rx="2" fill="#e5e7eb"/>
  <rect x="636" y="250" width="16" height="16" rx="2" fill="#e5e7eb"/>
  <rect x="656" y="250" width="16" height="16" rx="2" fill="#e5e7eb"/>
  <rect x="676" y="250" width="16" height="16" rx="2" fill="#e5e7eb"/>
  <rect x="696" y="250" width="16" height="16" rx="2" fill="#e5e7eb"/>
  <rect x="716" y="250" width="16" height="16" rx="2" fill="#e5e7eb"/>
  <rect x="736" y="250" width="16" height="16" rx="2" fill="#e5e7eb"/>
  <rect x="756" y="250" width="16" height="16" rx="2" fill="#e5e7eb"/>
  <rect x="576" y="270" width="16" height="16" rx="2" fill="#e5e7eb"/>
  <rect x="596" y="270" width="16" height="16" rx="2" fill="#e5e7eb"/>
  <rect x="616" y="270" width="16" height="16" rx="2" fill="#e5e7eb"/>
  <rect x="636" y="270" width="16" height="16" rx="2" fill="#e5e7eb"/>
  <rect x="656" y="270" width="16" height="16" rx="2" fill="#e5e7eb"/>
  <rect x="676" y="270" width="16" height="16" rx="2" fill="#e5e7eb"/>
  <rect x="696" y="270" width="16" height="16" rx="2" fill="#e5e7eb"/>
  <rect x="716" y="270" width="16" height="16" rx="2" fill="#e5e7eb"/>
  <rect x="736" y="270" width="16" height="16" rx="2" fill="#e5e7eb"/>
  <rect x="756" y="270" width="16" height="16" rx="2" fill="#e5e7eb"/>
  <rect x="576" y="290" width="16" height="16" rx="2" fill="#e5e7eb"/>
  <rect x="596" y="290" width="16" height="16" rx="2" fill="#e5e7eb"/>
  <rect x="616" y="290" width="16" height="16" rx="2" fill="#e5e7eb"/>
  <rect x="636" y="290" width="16" height="16" rx="2" fill="#e5e7eb"/>
  <rect x="656" y="290" width="16" height="16" rx="2" fill="#e5e7eb"/>
  <rect x="676" y="290" width="16" height="16" rx="2" fill="#e5e7eb"/>
  <rect x="696" y="290" width="16" height="16" rx="2" fill="#e5e7eb"/>
  <rect x="716" y="290" width="16" height="16" rx="2" fill="#e5e7eb"/>
  <rect x="736" y="290" width="16" height="16" rx="2" fill="#e5e7eb"/>
  <rect x="756" y="290" width="16" height="16" rx="2" fill="#e5e7eb"/>
  <rect x="576" y="310" width="16" height="16" rx="2" fill="#e5e7eb"/>
  <rect x="596" y="310" width="16" height="16" rx="2" fill="#e5e7eb"/>
  <rect x="616" y="310" width="16" height="16" rx="2" fill="#e5e7eb"/>
  <rect x="636" y="310" width="16" height="16" rx="2" fill="#e5e7eb"/>
  <rect x="656" y="310" width="16" height="16" rx="2" fill="#e5e7eb"/>
  <rect x="676" y="310" width="16" height="16" rx="2" fill="#e5e7eb"/>
  <rect x="696" y="310" width="16" height="16" rx="2" fill="#e5e7eb"/>
  <rect x="716" y="310" width="16" height="16" rx="2" fill="#e5e7eb"/>
  <rect x="736" y="310" width="16" height="16" rx="2" fill="#e5e7eb"/>
  <rect x="756" y="310" width="16" height="16" rx="2" fill="#e5e7eb"/>
  <rect x="576" y="330" width="16" height="16" rx="2" fill="#e5e7eb"/>
  <rect x="596" y="330" width="16" height="16" rx="2" fill="#e5e7eb"/>
  <rect x="616" y="330" width="16" height="16" rx="2" fill="#e5e7eb"/>
  <rect x="636" y="330" width="16" height="16" rx="2" fill="#e5e7eb"/>
  <rect x="656" y="330" width="16" height="16" rx="2" fill="#e5e7eb"/>
  <rect x="676" y="330" width="16" height="16" rx="2" fill="#e5e7eb"/>
  <rect x="696" y="330" width="16" height="16" rx="2" fill="#e5e7eb"/>
  <rect x="716" y="330" width="16" height="16" rx="2" fill="#e5e7eb"/>
  <rect x="736" y="330" width="16" height="16" rx="2" fill="#e5e7eb"/>
  <rect x="756" y="330" width="16" height="16" rx="2" fill="#e5e7eb"/>
  <text x="668" y="368" text-anchor="middle" font-size="12" fill="#374151"><tspan font-size="15" font-weight="600" fill="#b91c1c">24.3%</tspan> sit within one bf16 ulp of the cut</text>

  <text x="450" y="404" text-anchor="middle" font-size="11.5" fill="#374151">Flipping one of eight experts does not change a token by an epsilon. It changes it by an eighth of the layer.</text>
</svg>